<svg xmlns="http://www.w3.org/2000/svg" width="22.953" height="18.362" viewBox="0 0 22.953 18.362">
  <path id="Icon_awesome-eye-slash" data-name="Icon awesome-eye-slash" d="M11.476,14.345A5.145,5.145,0,0,1,6.351,9.571L2.589,6.664A11.953,11.953,0,0,0,1.272,8.658a1.16,1.16,0,0,0,0,1.047,11.5,11.5,0,0,0,10.2,6.362,11.14,11.14,0,0,0,2.793-.375l-1.861-1.44a5.169,5.169,0,0,1-.932.094Zm11.255,2.084-3.965-3.064A11.88,11.88,0,0,0,21.68,9.7a1.16,1.16,0,0,0,0-1.047A11.5,11.5,0,0,0,11.476,2.3,11.051,11.051,0,0,0,6.193,3.647L1.63.121a.574.574,0,0,0-.805.1l-.7.906a.574.574,0,0,0,.1.805l21.1,16.308a.574.574,0,0,0,.805-.1l.7-.906a.574.574,0,0,0-.1-.805Zm-6.589-5.093-1.409-1.09a3.4,3.4,0,0,0-4.164-4.373A1.709,1.709,0,0,1,10.9,6.886a1.673,1.673,0,0,1-.055.359L8.207,5.2a5.1,5.1,0,0,1,3.269-1.187,5.161,5.161,0,0,1,5.164,5.164,5.042,5.042,0,0,1-.5,2.156Z" transform="translate(0 0)"/>
</svg>
