<svg xmlns="http://www.w3.org/2000/svg" width="34.196" height="42.612" viewBox="0 0 34.196 42.612">
  <g id="Icon_ionic-ios-notifications-outline" data-name="Icon ionic-ios-notifications-outline" transform="translate(-6.499 -3.68)">
    <path id="Path_27" data-name="Path 27" d="M22.919,28.336a1.32,1.32,0,0,0-1.295,1.04,2.555,2.555,0,0,1-.51,1.111,1.927,1.927,0,0,1-1.641.6,1.959,1.959,0,0,1-1.641-.6,2.555,2.555,0,0,1-.51-1.111,1.32,1.32,0,0,0-1.295-1.04h0a1.329,1.329,0,0,0-1.295,1.621,4.555,4.555,0,0,0,4.74,3.782,4.546,4.546,0,0,0,4.74-3.782,1.334,1.334,0,0,0-1.295-1.621Z" transform="translate(4.094 12.304)" fill="#fff" stroke="#fff" stroke-width="0.5"/>
    <path id="Path_28" data-name="Path 28" d="M40,35.333c-1.621-2.151-4.81-3.413-4.81-13.046,0-9.888-4.336-13.862-8.378-14.816-.379-.1-.653-.223-.653-.625V6.538A2.591,2.591,0,0,0,23.631,3.93h-.063a2.591,2.591,0,0,0-2.526,2.607v.307c0,.392-.274.53-.653.625-4.052.964-8.378,4.928-8.378,14.816,0,9.634-3.189,10.884-4.81,13.046A2.1,2.1,0,0,0,8.874,38.7H38.356A2.107,2.107,0,0,0,40,35.333Zm-4.1.615H11.348A.465.465,0,0,1,11,35.174a12.851,12.851,0,0,0,2.21-3.54,24.166,24.166,0,0,0,1.505-9.348c0-3.953.737-7.048,2.2-9.2a6.753,6.753,0,0,1,4.073-2.925,3.683,3.683,0,0,0,1.958-1.113A.829.829,0,0,1,24.2,9.028a3.807,3.807,0,0,0,1.979,1.134,6.753,6.753,0,0,1,4.073,2.925c1.463,2.151,2.2,5.246,2.2,9.2a24.167,24.167,0,0,0,1.505,9.348,13,13,0,0,0,2.263,3.593A.438.438,0,0,1,35.893,35.947Z" transform="translate(0 0)" fill="#fff" stroke="#fff" stroke-width="0.5"/>
  </g>
</svg>
