<svg xmlns="http://www.w3.org/2000/svg" width="40.762" height="27.186" viewBox="0 0 40.762 27.186">
  <path id="Icon_ionic-ios-arrow-round-back" data-name="Icon ionic-ios-arrow-round-back" d="M22.649,11.772a1.85,1.85,0,0,1,.014,2.605L14.069,23H46.817a1.841,1.841,0,0,1,0,3.681H14.069L22.677,35.3a1.863,1.863,0,0,1-.014,2.605,1.833,1.833,0,0,1-2.591-.014L8.406,26.143h0a2.067,2.067,0,0,1-.382-.58,1.757,1.757,0,0,1-.142-.708,1.845,1.845,0,0,1,.524-1.288L20.072,11.815A1.8,1.8,0,0,1,22.649,11.772Z" transform="translate(-7.882 -11.252)" fill="#575757"/>
</svg>
