<svg xmlns="http://www.w3.org/2000/svg" width="41.688" height="41.688" viewBox="0 0 41.688 41.688">
  <path id="Icon_metro-warning" data-name="Icon metro-warning" d="M23.415,5.7,40.884,40.522H5.945L23.415,5.7Zm0-3.777a3.013,3.013,0,0,0-2.479,1.818L3.142,39.209c-1.363,2.424-.2,4.407,2.577,4.407H41.11c2.781,0,3.94-1.983,2.577-4.407h0L25.893,3.746A3.013,3.013,0,0,0,23.415,1.928ZM26.02,35.8a2.605,2.605,0,1,1-2.605-2.605A2.605,2.605,0,0,1,26.02,35.8Zm-2.605-5.211a2.605,2.605,0,0,1-2.605-2.605V20.166a2.605,2.605,0,0,1,5.211,0v7.816A2.605,2.605,0,0,1,23.415,30.588Z" transform="translate(-2.571 -1.928)" fill="#f87474"/>
</svg>
