<svg xmlns="http://www.w3.org/2000/svg" width="78.897" height="60.278" viewBox="0 0 78.897 93.278">
  <g id="account" opacity="1">
    <path id="Path_3" data-name="Path 3" d="M165.139-463.613a25.91,25.91,0,0,0-14.807,8.189,25.026,25.026,0,0,0,1.122,34.325,25.035,25.035,0,0,0,34.258,1.167,26.443,26.443,0,0,0,7.314-11.06,25.12,25.12,0,0,0-12.137-30A25.282,25.282,0,0,0,165.139-463.613Zm6.8,7.089a17.957,17.957,0,0,1,14.986,20.169,17.922,17.922,0,0,1-27.1,12.788,17.962,17.962,0,0,1-8.278-18.441A17.9,17.9,0,0,1,171.937-456.524Z" transform="translate(-129.729 463.935)" fill="#c9b6a9"/>
    <path id="Path_4" data-name="Path 4" d="M143.236-257.5a3.741,3.741,0,0,0-1.368,1.167c-1.144,1.907-.83,3.141,1.458,5.609a32.3,32.3,0,0,1,8.5,19.81c.2,2.939,0,3.522-1.795,5.2-6.865,6.416-27.056,9.423-43.994,6.529-7.336-1.234-13.82-3.724-16.714-6.394-1.885-1.772-2.109-2.356-1.929-5.2a32.189,32.189,0,0,1,8.323-19.72c1.795-1.974,2.221-2.76,2.064-4.061a3.608,3.608,0,0,0-5.048-2.872,26.1,26.1,0,0,0-4.936,5.25,39.25,39.25,0,0,0-7.605,21.47c-.2,4.263.561,6.484,3.275,9.378,9.624,10.23,39.35,13.708,59.9,6.977,5.631-1.84,9.737-4.173,12.406-7.022,2.692-2.849,3.455-5.07,3.253-9.333A39.158,39.158,0,0,0,148.463-255.7C146.219-258.036,145.1-258.418,143.236-257.5Z" transform="translate(-80.163 304.17)" fill="#c9b6a9"/>
  </g>
</svg>
