<svg xmlns="http://www.w3.org/2000/svg" width="27.252" height="27.228" viewBox="0 0 27.252 27.228">
  <g id="trash-can" transform="translate(0.2 0.211)">
    <path id="Path_47" data-name="Path 47" d="M17.731-506.49a5.58,5.58,0,0,0-5.071,5.424l-.037.535-3.653.027-3.659.027-.155.176a.531.531,0,0,0-.155.465.531.531,0,0,0,.155.465l.155.177,10.826.027,10.821.027.037.588a82.442,82.442,0,0,1-.037,9.334,40.084,40.084,0,0,1-.69,5.884,3.351,3.351,0,0,1-1.664,1.878c-.765.38-.594.369-6.2.369-5.563,0-5.445.005-6.151-.342a3.263,3.263,0,0,1-1.5-1.5,5.618,5.618,0,0,1-.476-2.086,63.161,63.161,0,0,1-.519-8.665c-.011-2.653-.005-2.648-.4-2.835a.643.643,0,0,0-.883.364c-.091.209-.1.38-.1,2.257,0,2.519.086,4.541.267,6.526a29.191,29.191,0,0,0,.637,4.493,4.725,4.725,0,0,0,3.06,2.958c.7.214,1.171.23,6.414.214,5.461-.021,5.253-.011,6.077-.342a4.765,4.765,0,0,0,2.872-3.311,66.816,66.816,0,0,0,.733-7.729c.1-2.231.053-5.97-.086-7.665l-.032-.412h3.177l.182-.182a.5.5,0,0,0,.182-.481.537.537,0,0,0-.155-.471l-.155-.176-3.669-.016L24.2-500.5v-.31a7.288,7.288,0,0,0-.567-2.519,6.124,6.124,0,0,0-1.76-2.124,6.951,6.951,0,0,0-1.492-.749A6.7,6.7,0,0,0,17.731-506.49Zm1.648,1.359a4.144,4.144,0,0,1,2.14,1.118,4.322,4.322,0,0,1,1.305,3.054l.016.428H14.013l.016-.481a4.261,4.261,0,0,1,3.493-4.14A7.2,7.2,0,0,1,19.378-505.131Z" transform="translate(-5 506.523)" stroke="#000" stroke-width="0.4"/>
    <path id="Path_48" data-name="Path 48" d="M243.394-290.849c-.332.177-.321.011-.3,4.862.016,4.381.016,4.413.128,4.563a.853.853,0,0,0,.332.23.51.51,0,0,0,.449,0,.853.853,0,0,0,.332-.23c.112-.15.112-.182.128-4.563.016-4.868.027-4.691-.316-4.862A.958.958,0,0,0,243.394-290.849Z" transform="translate(-230.347 302.457)" stroke="#000" stroke-width="0.4"/>
    <path id="Path_49" data-name="Path 49" d="M153.736-275.821c-.321.193-.316.086-.16,4,.155,3.883.139,3.776.476,3.98a.659.659,0,0,0,.888-.193c.144-.182.144-.412-.016-4.354-.134-3.3-.128-3.279-.46-3.45A.809.809,0,0,0,153.736-275.821Z" transform="translate(-145.53 288.253)" stroke="#000" stroke-width="0.4"/>
    <path id="Path_50" data-name="Path 50" d="M329.578-275.823c-.321.171-.316.16-.449,3.445-.07,1.664-.123,3.3-.128,3.632v.6l.176.177a.633.633,0,0,0,.77.155c.4-.2.374-.032.53-4,.155-3.915.16-3.809-.16-4A.816.816,0,0,0,329.578-275.823Z" transform="translate(-311.669 288.239)" stroke="#000" stroke-width="0.4"/>
  </g>
</svg>
