<svg xmlns="http://www.w3.org/2000/svg" width="47.072" height="47.043" viewBox="0 0 37.072 37.043">
  <g id="home" transform="translate(-31.291 480.385)">
    <path id="Path_1" data-name="Path 1" d="M49.3-479.772c-.129.064-4.108,3.987-8.835,8.723-9.343,9.351-8.787,8.747-8.642,9.5a1.407,1.407,0,0,0,.95.95c.757.145.2.652,8.98-8.118l8.07-8.07,8.078,8.07c8.771,8.771,8.215,8.264,8.972,8.118a1.407,1.407,0,0,0,.95-.95c.145-.757.7-.153-8.642-9.512-5.034-5.034-8.7-8.65-8.851-8.714A1.344,1.344,0,0,0,49.3-479.772Z" fill="#fff" stroke="#fff" stroke-width="1"/>
    <path id="Path_2" data-name="Path 2" d="M80.945-223.6a1.393,1.393,0,0,0-.725.878c-.024.145-.032,2.271-.016,4.728.032,5.026.008,4.816.66,6.161a6.3,6.3,0,0,0,2.972,2.94c1.345.644.62.6,10.519.6,9.955,0,9.182.048,10.591-.644a6.544,6.544,0,0,0,3.4-4.148c.129-.483.145-.9.145-5.171,0-4.567,0-4.647-.169-4.865a1.137,1.137,0,0,0-1.079-.556,1.137,1.137,0,0,0-1.079.556c-.161.217-.169.33-.209,4.744-.04,4.381-.048,4.543-.209,4.986a4.078,4.078,0,0,1-2.352,2.352c-.459.169-.5.169-8.755.193-5.944.016-8.433,0-8.779-.064a4.4,4.4,0,0,1-1.74-.83,4.6,4.6,0,0,1-1.144-1.651c-.169-.443-.177-.6-.217-4.986-.04-4.414-.048-4.526-.209-4.744a2.066,2.066,0,0,0-.37-.378A1.491,1.491,0,0,0,80.945-223.6Z" transform="translate(-44.528 -235.557)" fill="#fff" stroke="#fff" stroke-width="1"/>
  </g>
</svg>
