<svg xmlns="http://www.w3.org/2000/svg" width="34.715" height="25.599" viewBox="0 0 34.715 25.599">
  <g id="Group_19" data-name="Group 19" transform="translate(0.097 0.108)">
    <g id="account" transform="translate(0 0)">
      <path id="Path_3" data-name="Path 3" d="M149.8-463.847a7.049,7.049,0,0,0-4.028,2.227,6.808,6.808,0,0,0,.305,9.338,6.81,6.81,0,0,0,9.319.317,7.193,7.193,0,0,0,1.99-3.009,6.833,6.833,0,0,0-3.3-8.16A6.877,6.877,0,0,0,149.8-463.847Zm1.849,1.929a4.885,4.885,0,0,1,4.077,5.486,4.875,4.875,0,0,1-7.372,3.479,4.886,4.886,0,0,1-2.252-5.017A4.87,4.87,0,0,1,151.647-461.919Z" transform="translate(-140.165 463.935)" stroke="#000" stroke-width="0.2"/>
      <path id="Path_4" data-name="Path 4" d="M97.321-257.834a1.018,1.018,0,0,0-.372.317c-.311.519-.226.854.4,1.526a8.787,8.787,0,0,1,2.313,5.389c.055.8,0,.958-.488,1.416-1.867,1.745-7.36,2.563-11.968,1.776a9.843,9.843,0,0,1-4.547-1.739,1.326,1.326,0,0,1-.525-1.416,8.756,8.756,0,0,1,2.264-5.364c.488-.537.6-.751.561-1.1a.981.981,0,0,0-1.373-.781,7.1,7.1,0,0,0-1.343,1.428,10.677,10.677,0,0,0-2.069,5.84A2.954,2.954,0,0,0,81.063-248c2.618,2.783,10.7,3.729,16.295,1.9a7.912,7.912,0,0,0,3.375-1.91,2.931,2.931,0,0,0,.885-2.539,10.652,10.652,0,0,0-2.874-6.8C98.132-257.981,97.827-258.085,97.321-257.834Z" transform="translate(-80.163 270.53)" stroke="#000" stroke-width="0.2"/>
    </g>
    <path id="Icon_feather-edit-2" data-name="Icon feather-edit-2" d="M10.75,3.685a1.461,1.461,0,1,1,2.067,2.067L5.842,12.727,3,13.5l.775-2.842Z" transform="translate(20.595 4.307)" fill="none" stroke="#000" stroke-linecap="round" stroke-linejoin="round" stroke-width="1.3"/>
  </g>
</svg>
