<svg xmlns="http://www.w3.org/2000/svg" width="25.358" height="28.549" viewBox="0 0 25.358 28.549">
  <g id="contract" transform="translate(0.125 0.122)">
    <path id="Path_42" data-name="Path 42" d="M30.955-511.682a2.732,2.732,0,0,0-.5.221,2.467,2.467,0,0,0-.8.935l-.149.315v23.127l.155.31a2.161,2.161,0,0,0,1.56,1.212c.227.039,1.062.055,2.617.044l2.291-.017.105-.133a.39.39,0,0,0-.022-.548c-.127-.122-.144-.122-2.4-.122-2.462,0-2.661-.017-3.026-.3a1.564,1.564,0,0,1-.343-.437l-.138-.282v-11.287c0-11.248.006-11.292.116-11.541a1.162,1.162,0,0,1,.575-.625l.221-.122,6.49-.017,6.484-.011v1.317a16.048,16.048,0,0,0,.061,1.649,2.156,2.156,0,0,0,1.737,1.732,15.827,15.827,0,0,0,1.643.061h1.317v3.646c0,2.008.017,3.69.033,3.74a.447.447,0,0,0,.736.011,39.237,39.237,0,0,0,.05-3.939l-.017-3.818-.155-.3a51.683,51.683,0,0,0-4.769-4.764l-.277-.133-6.639-.011C31.625-511.782,31.254-511.776,30.955-511.682Zm17.329,4.614a6.8,6.8,0,0,1-1.123.033c-1.073-.022-1.134-.028-1.394-.166a1.337,1.337,0,0,1-.686-.88,10.132,10.132,0,0,1-.061-1.289v-1.007l1.632,1.632C47.548-507.848,48.284-507.09,48.284-507.068Z" transform="translate(-29.5 511.775)" stroke="#000" stroke-width="0.25"/>
    <path id="Path_43" data-name="Path 43" d="M82.255-425.856a.331.331,0,0,0,.017.5l.133.155,3.48.017c2.412.011,3.519-.006,3.618-.044a.52.52,0,0,0,.271-.409.528.528,0,0,0-.116-.221L89.548-426H82.366Z" transform="translate(-79.234 430.746)" stroke="#000" stroke-width="0.25"/>
    <path id="Path_44" data-name="Path 44" d="M82.138-373.862a.419.419,0,0,0-.138.221.559.559,0,0,0,.288.437c.072.017,3.2.033,6.966.033,6.839,0,6.839,0,6.988-.116a.414.414,0,0,0,.033-.6C96.164-374,96.092-374,89.22-374H82.271Z" transform="translate(-79.095 381.623)" stroke="#000" stroke-width="0.25"/>
    <path id="Path_45" data-name="Path 45" d="M82.365-327.906a.56.56,0,0,0-.149.277.286.286,0,0,0,.105.315l.144.144h6.949c6.872,0,6.944,0,7.054-.111a.414.414,0,0,0-.033-.6c-.149-.116-.149-.116-7.049-.116C82.89-328,82.476-327.994,82.365-327.906Z" transform="translate(-79.289 338.168)" stroke="#000" stroke-width="0.25"/>
    <path id="Path_46" data-name="Path 46" d="M91.363-258.888c-.2.116-.409.443-2.058,3.226-1.012,1.7-1.865,3.192-1.9,3.3-.138.5.127.869.968,1.339a1.758,1.758,0,0,0,1.787.254c.2-.094.4-.1.4-.017,0,.011-.111.177-.243.365a1.525,1.525,0,0,0-.365,1.024,1.368,1.368,0,0,0,1.367,1.339c.2,0,.227.011.282.21a1.6,1.6,0,0,0,.692.791,1.559,1.559,0,0,0,.542.144c.3.028.315.039.376.232a1.488,1.488,0,0,0,.7.78,1.658,1.658,0,0,0,.968.1c.183-.039.2-.028.36.216a1.307,1.307,0,0,0,1.134.592,1.326,1.326,0,0,0,.924-.332l.172-.133.559.332a1.909,1.909,0,0,0,1.306.42,1.423,1.423,0,0,0,1.14-.929c.039-.133.072-.243.077-.255a1.069,1.069,0,0,1,.21.072,1.69,1.69,0,0,0,1.007.006,2.027,2.027,0,0,0,.376-.221,1.515,1.515,0,0,0,.481-.819c0-.133.017-.138.321-.133a2.127,2.127,0,0,0,.531-.072,1.506,1.506,0,0,0,.88-1.007c.039-.144.044-.144.288-.089a1.425,1.425,0,0,0,1.09-.254,1.417,1.417,0,0,0,.4-1.726.735.735,0,0,1-.105-.315,1.007,1.007,0,0,1,.255-.16.619.619,0,0,1,.542-.055,1.771,1.771,0,0,0,1.35-.31c.714-.409.9-.553,1-.758a1.022,1.022,0,0,0,.011-.8c-.277-.531-3.607-6.1-3.724-6.219a.862.862,0,0,0-.741-.249,4.945,4.945,0,0,0-1.588.946,1.41,1.41,0,0,0-.387,1.167c.017.4.011.421-.111.454a2.389,2.389,0,0,1-1.256-.26,2.677,2.677,0,0,0-2.2-.061l-.863.227-.437-.21a1.573,1.573,0,0,0-.957-.2,2.415,2.415,0,0,0-1.206.266c-.8.3-1.057.326-1.483.127l-.282-.133-.028-.376c-.05-.7-.3-1.029-1.167-1.555C92.027-259.048,91.74-259.1,91.363-258.888Zm1,1.024c.6.36.775.586.725.968-.033.238-2.827,5.018-3.06,5.229a.788.788,0,0,1-.714.177,4.648,4.648,0,0,1-.664-.337c-.432-.26-.465-.288-.4-.4.116-.216,3.43-5.815,3.491-5.887.028-.033.061-.066.077-.066S92.077-258.041,92.365-257.864Zm14.269,2.65c.968,1.627,1.759,3,1.765,3.049a2.938,2.938,0,0,1-1.073.681.745.745,0,0,1-.73-.2,14.809,14.809,0,0,1-.813-1.289,14.006,14.006,0,0,0-.764-1.206.434.434,0,0,0-.515.044c-.21.21-.149.387.553,1.571.365.62.675,1.156.692,1.206s-.055.133-.243.249l-.271.172-1.4-.83c-3.541-2.1-4.387-2.589-4.476-2.589a.464.464,0,0,0-.387.376,1.581,1.581,0,0,1-.232.747,1.052,1.052,0,0,1-.708.371h-.177l.022-1.068c.028-1.566.072-1.627,1.439-1.981a9.665,9.665,0,0,1,1-.216,2.056,2.056,0,0,1,.476.116c1.245.47,1.582.526,2.13.36l.26-.077.166.271c.183.3.371.409.57.332.371-.144.36-.4-.033-1.062-.52-.869-.443-1.178.432-1.693.277-.16.515-.293.531-.293S105.671-256.846,106.634-255.214Zm-9.3-.852c.077.033.133.077.122.094s-.1.2-.2.42l-.194.387v1.284c0,1.427,0,1.433.421,1.721.166.116.238.127.6.111a1.686,1.686,0,0,0,1.45-.913c.16-.282.177-.293.288-.221.061.044,1.289.769,2.717,1.61s2.667,1.61,2.755,1.7a.5.5,0,0,1-.011.725c-.3.337-.349.315-2.512-.968a18.435,18.435,0,0,0-2.069-1.145.4.4,0,0,0-.3.653c.05.061.719.481,1.477.93s1.439.863,1.5.924a.548.548,0,0,1-.072.847c-.293.194-.415.144-1.959-.775-.808-.476-1.522-.88-1.593-.9a.41.41,0,0,0-.432.3c-.077.3.011.382,1.2,1.084.974.575,1.151.7,1.234.88a.363.363,0,0,1,.022.393.754.754,0,0,1-.21.282c-.255.177-.426.116-1.5-.52-.564-.332-1.09-.62-1.167-.642a.44.44,0,0,0-.448.465c.05.21.094.254.592.542s.631.415.669.62a.575.575,0,0,1-.636.653,4.617,4.617,0,0,1-1.1-.636,1.224,1.224,0,0,1,.083-.243,1.575,1.575,0,0,0,.017-.935,1.6,1.6,0,0,0-.813-.858l-.26-.089.05-.243a1.108,1.108,0,0,0-.011-.537,1.361,1.361,0,0,0-1.239-1.079l-.332-.033-.077-.232a1.41,1.41,0,0,0-.288-.443,1.237,1.237,0,0,0-1.035-.432.979.979,0,0,0-.681.177l-.288.183-.172-.2a1.545,1.545,0,0,0-.4-.31,1.577,1.577,0,0,0-1.107-.077c-.26.105-.36.111-.4.017-.017-.055,2.423-4.277,2.545-4.393a1.391,1.391,0,0,1,.343.133,1.548,1.548,0,0,0,.88.155,2.328,2.328,0,0,0,1.19-.26C96.653-256.138,97.051-256.2,97.339-256.066Zm-5.179,5.383a.56.56,0,0,1,.266.575,4.425,4.425,0,0,1-.819,1.167.567.567,0,0,1-.824-.487c0-.177.066-.3.371-.725C91.6-250.777,91.789-250.876,92.16-250.683Zm2.351.42c.255.282.194.454-.465,1.383-.315.437-.631.863-.708.946a.542.542,0,0,1-.664.133.477.477,0,0,1-.288-.5c0-.177.105-.349.664-1.134a6.847,6.847,0,0,1,.791-.985A.587.587,0,0,1,94.511-250.262Zm1.538,1.1a.419.419,0,0,1,.183.376c0,.188-.089.343-.681,1.167a5.6,5.6,0,0,1-.8.985.563.563,0,0,1-.769-.36.4.4,0,0,1,.055-.42,18.288,18.288,0,0,1,1.35-1.826A.527.527,0,0,1,96.05-249.167Zm1.1,1.881c.232.232.216.465-.055.869-.321.481-.47.6-.736.6a.411.411,0,0,1-.382-.183c-.232-.26-.216-.465.072-.891.293-.443.448-.559.719-.559A.473.473,0,0,1,97.151-247.286Z" transform="translate(-84.171 272.995)" stroke="#000" stroke-width="0.25"/>
  </g>
</svg>
