<svg id="theme" xmlns="http://www.w3.org/2000/svg" width="31.23" height="29.335" viewBox="0 0 31.23 29.335">
  <path id="Path_53" data-name="Path 53" d="M225.471-442.744c-.369.181-.471.416-.471,1.138,0,.934.212,1.233.864,1.233a.651.651,0,0,0,.557-.228c.22-.22.228-.259.228-.989,0-.848-.086-1.076-.487-1.209A.636.636,0,0,0,225.471-442.744Z" transform="translate(-211.817 442.876)"/>
  <path id="Path_54" data-name="Path 54" d="M121.158-408.772c-.314.322-.314.715.016,1.217.4.6.675.832.981.832.817,0,1.138-.707.652-1.445-.44-.652-.667-.832-1.068-.832A.678.678,0,0,0,121.158-408.772Z" transform="translate(-115.913 411.66)"/>
  <path id="Path_55" data-name="Path 55" d="M115.732-398.619a10.056,10.056,0,0,0-2.395.785l-.8.385-.887-.306a9.872,9.872,0,0,0-3.565-.565,10.058,10.058,0,0,0-3.125.424,10.944,10.944,0,0,0-5.284,3.557,10.936,10.936,0,0,0,5.1,17.281,9.856,9.856,0,0,0,3.431.542,10.84,10.84,0,0,0,6.2-1.908,13.745,13.745,0,0,0,2.7-2.614c.3-.424.416-.534.62-.565a9.882,9.882,0,0,0,2.1-.455,8.509,8.509,0,0,0,5.308-5.355c.33-.966.2-1.5-.408-1.7-.228-.079-.377-.071-.879.063a4.326,4.326,0,0,1-1.979.173,5.094,5.094,0,0,1-2.081-.793,4.806,4.806,0,0,1-2.238-4.1,4.8,4.8,0,0,1,1.138-3.164c.3-.353.432-.589.432-.746,0-.73-.44-.95-1.963-.981A11.2,11.2,0,0,0,115.732-398.619Zm.872,1.609c0,.016-.1.251-.228.526a6.215,6.215,0,0,0-.51,2.74,6,6,0,0,0,1.091,3.659,6.905,6.905,0,0,0,3.572,2.709,4.242,4.242,0,0,0,1.665.259,2.942,2.942,0,0,1,.926.079,7.75,7.75,0,0,1-1.35,1.821,6.987,6.987,0,0,1-7.914,1.17,7.1,7.1,0,0,1-3.651-4.75,8.285,8.285,0,0,1,.039-2.983,7.407,7.407,0,0,1,2.167-3.58,7.109,7.109,0,0,1,3.8-1.625c.149-.016.3-.039.338-.039S116.6-397.026,116.6-397.01Zm-6.36.479a3.065,3.065,0,0,1,.644.188c.031.023-.141.275-.377.557a8.565,8.565,0,0,0-.652,10.285,11.008,11.008,0,0,0,2.646,2.544,9.5,9.5,0,0,0,2.473,1c.243.047.448.126.448.165a14.03,14.03,0,0,1-2.112,2.026,8.957,8.957,0,0,1-5.111,1.57,9.013,9.013,0,0,1-6.556-2.709,9.017,9.017,0,0,1-2.732-6.556,9.016,9.016,0,0,1,2.693-6.517,9.122,9.122,0,0,1,4.774-2.6A12.5,12.5,0,0,1,110.244-396.531Z" transform="translate(-94.077 402.135)"/>
  <path id="Path_56" data-name="Path 56" d="M57.935-320.708a.889.889,0,0,0-.416.471c-.141.314-.141.353-.024.6.141.291.259.369.934.6.691.236.95.212,1.272-.11a.741.741,0,0,0,.173-.942c-.118-.275-.322-.393-.981-.589S58.273-320.873,57.935-320.708Z" transform="translate(-57.385 330.411)"/>
  <path id="Path_57" data-name="Path 57" d="M58.031-215.65a1.7,1.7,0,0,0-.738.4.56.56,0,0,0-.181.6c.079.722.644.95,1.617.652.644-.2.872-.424.872-.872a.924.924,0,0,0-.6-.832C58.675-215.838,58.652-215.838,58.031-215.65Z" transform="translate(-57.097 233.628)"/>
  <path id="Path_58" data-name="Path 58" d="M121.989-132.813a2.4,2.4,0,0,0-.989,1.445.806.806,0,0,0,1.044.785,2.436,2.436,0,0,0,.981-1.068.9.9,0,0,0-.377-1.162A.542.542,0,0,0,121.989-132.813Z" transform="translate(-115.983 157.26)"/>
  <path id="Path_59" data-name="Path 59" d="M322.8-131.894a.947.947,0,0,0-.338.393.586.586,0,0,0-.063.55,2.9,2.9,0,0,0,1.06,1.241.923.923,0,0,0,.9-.345c.228-.479.173-.722-.29-1.335C323.628-131.972,323.259-132.121,322.8-131.894Z" transform="translate(-301.534 156.404)"/>
  <path id="Path_60" data-name="Path 60" d="M225.369-100.914c-.251.149-.369.51-.369,1.146,0,.73.1.958.5,1.154a.627.627,0,0,0,.6.055c.455-.133.55-.345.55-1.225,0-.73-.008-.769-.228-.989a.672.672,0,0,0-.573-.228A1.184,1.184,0,0,0,225.369-100.914Z" transform="translate(-211.817 127.842)"/>
</svg>
